<?xml version="1.0" encoding="UTF-8"?>
<svg width="1183px" height="517px" viewBox="0 0 1183 517" version="1.1" xmlns="http://www.w3.org/2000/svg" xmlns:xlink="http://www.w3.org/1999/xlink">
    <!-- Generator: Sketch 49 (51002) - http://www.bohemiancoding.com/sketch -->
    <title>s3-mount</title>
    <desc>Created with Sketch.</desc>
    <defs>
        <path d="M140.548127,1.24566752 L245.974378,51.8368727 C247.621757,52.6274052 248.819121,54.1255428 249.227089,55.9066547 L275.25741,169.549949 C275.666263,171.334922 275.237599,173.208888 274.093395,174.638604 L201.148302,265.785641 C200.009649,267.208422 198.286094,268.03661 196.463778,268.03661 L79.4408212,268.03661 C77.6185053,268.03661 75.89495,267.208422 74.756297,265.785641 L1.81120402,174.638604 C0.667000233,173.208888 0.238336216,171.334922 0.647189447,169.549949 L26.6775097,55.9066547 C27.0854785,54.1255428 28.282842,52.6274052 29.9302207,51.8368727 L135.356472,1.24566752 C136.997444,0.458209445 138.907155,0.458209445 140.548127,1.24566752 Z" id="path-1"></path>
        <filter x="-2.5%" y="-1.9%" width="105.1%" height="105.2%" filterUnits="objectBoundingBox" id="filter-2">
            <feOffset dx="0" dy="2" in="SourceAlpha" result="shadowOffsetOuter1"></feOffset>
            <feGaussianBlur stdDeviation="2" in="shadowOffsetOuter1" result="shadowBlurOuter1"></feGaussianBlur>
            <feColorMatrix values="0 0 0 0 0   0 0 0 0 0   0 0 0 0 0  0 0 0 0.5 0" type="matrix" in="shadowBlurOuter1"></feColorMatrix>
        </filter>
        <path d="M140.548127,1.24566752 L245.974378,51.8368727 C247.621757,52.6274052 248.819121,54.1255428 249.227089,55.9066547 L275.25741,169.549949 C275.666263,171.334922 275.237599,173.208888 274.093395,174.638604 L201.148302,265.785641 C200.009649,267.208422 198.286094,268.03661 196.463778,268.03661 L79.4408212,268.03661 C77.6185053,268.03661 75.89495,267.208422 74.756297,265.785641 L1.81120402,174.638604 C0.667000233,173.208888 0.238336216,171.334922 0.647189447,169.549949 L26.6775097,55.9066547 C27.0854785,54.1255428 28.282842,52.6274052 29.9302207,51.8368727 L135.356472,1.24566752 C136.997444,0.458209445 138.907155,0.458209445 140.548127,1.24566752 Z" id="path-3"></path>
        <filter x="-2.5%" y="-1.9%" width="105.1%" height="105.2%" filterUnits="objectBoundingBox" id="filter-4">
            <feOffset dx="0" dy="2" in="SourceAlpha" result="shadowOffsetOuter1"></feOffset>
            <feGaussianBlur stdDeviation="2" in="shadowOffsetOuter1" result="shadowBlurOuter1"></feGaussianBlur>
            <feColorMatrix values="0 0 0 0 0   0 0 0 0 0   0 0 0 0 0  0 0 0 0.5 0" type="matrix" in="shadowBlurOuter1"></feColorMatrix>
        </filter>
        <polyline id="path-5" points="248 353 538 353 538 303"></polyline>
        <filter x="-2.8%" y="-12.0%" width="105.5%" height="132.0%" filterUnits="objectBoundingBox" id="filter-6">
            <feMorphology radius="1" operator="dilate" in="SourceAlpha" result="shadowSpreadOuter1"></feMorphology>
            <feOffset dx="0" dy="2" in="shadowSpreadOuter1" result="shadowOffsetOuter1"></feOffset>
            <feMorphology radius="1" operator="erode" in="SourceAlpha" result="shadowInner"></feMorphology>
            <feOffset dx="0" dy="2" in="shadowInner" result="shadowInner"></feOffset>
            <feComposite in="shadowOffsetOuter1" in2="shadowInner" operator="out" result="shadowOffsetOuter1"></feComposite>
            <feGaussianBlur stdDeviation="2" in="shadowOffsetOuter1" result="shadowBlurOuter1"></feGaussianBlur>
            <feColorMatrix values="0 0 0 0 0   0 0 0 0 0   0 0 0 0 0  0 0 0 0.5 0" type="matrix" in="shadowBlurOuter1"></feColorMatrix>
        </filter>
        <polyline id="path-7" points="248 377 890.455313 377 890.455313 307.714844"></polyline>
        <filter x="-1.2%" y="-8.7%" width="102.5%" height="123.1%" filterUnits="objectBoundingBox" id="filter-8">
            <feMorphology radius="1" operator="dilate" in="SourceAlpha" result="shadowSpreadOuter1"></feMorphology>
            <feOffset dx="0" dy="2" in="shadowSpreadOuter1" result="shadowOffsetOuter1"></feOffset>
            <feMorphology radius="1" operator="erode" in="SourceAlpha" result="shadowInner"></feMorphology>
            <feOffset dx="0" dy="2" in="shadowInner" result="shadowInner"></feOffset>
            <feComposite in="shadowOffsetOuter1" in2="shadowInner" operator="out" result="shadowOffsetOuter1"></feComposite>
            <feGaussianBlur stdDeviation="2" in="shadowOffsetOuter1" result="shadowBlurOuter1"></feGaussianBlur>
            <feColorMatrix values="0 0 0 0 0   0 0 0 0 0   0 0 0 0 0  0 0 0 0.5 0" type="matrix" in="shadowBlurOuter1"></feColorMatrix>
        </filter>
    </defs>
    <g id="s3-mount" stroke="none" stroke-width="1" fill="none" fill-rule="evenodd">
        <path d="M297.5,37.5 L297.5,480.612852" id="Line" stroke-opacity="0.417430933" stroke="#979797" stroke-width="3" stroke-linecap="square"></path>
        <g id="Group" transform="translate(89.000000, 284.000000)" fill-rule="nonzero">
            <polygon id="Shape" fill="#8C3123" points="10.4220573 28 -7.10542736e-14 33.2627737 -7.10542736e-14 125.737226 10.4220573 131 36 79.4903612"></polygon>
            <polygon id="Shape" fill="#E05243" points="63.6468623 117.715275 10 131 10 28 63.6468623 41.2847248 89 79.6542493"></polygon>
            <polygon id="Shape" fill="#8C3123" points="65 117.715275 119.56398 131 129 80.8111194 119.56398 28 65 41.2847248"></polygon>
            <polygon id="Shape" fill="#E05243" points="120 28 130 33.2627737 130 125.737226 120 131"></polygon>
            <polygon id="Shape" fill="#8C3123" points="42 96.8492025 65.425618 100 84 79.4900918 65.425618 59 42 62.0913485"></polygon>
            <polygon id="Shape" fill="#5E1F18" points="90 46.5686275 66 51 42 46.5686275 66 0"></polygon>
            <polygon id="Shape" fill="#F2B0A9" points="90 111.467153 66 107 42 111.467153 66 158"></polygon>
            <polygon id="Shape" fill="#E05243" points="88 46 65 40.0538947 65 0 88 12.0084211"></polygon>
            <polygon id="Shape" fill="#8C3123" points="42 46 65 40.0538947 65 0 42 12.0084211"></polygon>
            <polygon id="Shape" fill="#E05243" points="65 158 88 145.991579 88 112 65 117.946105"></polygon>
            <polygon id="Shape" fill="#8C3123" points="65 158 42 145.991579 42 112 65 117.946105"></polygon>
            <polygon id="Shape" fill="#E05243" points="88 96.8492025 65 100 65 59 88 62.0913485"></polygon>
        </g>
        <text id="Amazon-S3" font-family="Verdana" font-size="31" font-weight="normal" fill="#F5A623">
            <tspan x="71" y="226">Amazon S3</tspan>
        </text>
        <text id="Node-1" font-family="Verdana" font-size="20" font-weight="normal" fill="#009F76">
            <tspan x="556" y="47">Node 1</tspan>
        </text>
        <text id="Node-2" font-family="Verdana" font-size="20" font-weight="normal" fill="#009F76">
            <tspan x="912" y="49">Node 2</tspan>
        </text>
        <text id="Kubernetes-Cluster" font-family="Verdana" font-size="20" font-weight="normal" fill="#009F76">
            <tspan x="941" y="477">Kubernetes Cluster</tspan>
        </text>
        <g id="Node" transform="translate(810.000000, 60.000000)">
            <g id="Polygon">
                <use fill="black" fill-opacity="1" filter="url(#filter-2)" xlink:href="#path-1"></use>
                <use fill="#F7FCFB" fill-rule="evenodd" xlink:href="#path-1"></use>
            </g>
            <g id="Folder" transform="translate(142.000000, 183.000000)" fill="#009F76" fill-rule="nonzero">
                <path d="M2.51420455,0 C1.15953814,0 0,1.13111846 0,2.54967949 L0,24.963141 C0,26.3817115 1.15955364,27.5128205 2.51420455,27.5128205 L4.54545455,27.5128205 L4.54545455,34.4503205 C4.54545455,35.868891 5.70500818,37 7.05965909,37 L37.4857955,37 C38.8404464,37 40,35.868891 40,34.4503205 L40,16.3060897 C40,14.8875287 38.8382023,13.7593181 37.4857955,13.7564103 L35.4545455,13.7564103 L35.4545455,6.81891026 C35.4545455,5.40034923 34.2927477,4.27213859 32.9403409,4.26923077 L17.4005682,4.26923077 L15.8238636,0.563301282 C15.6789244,0.223115424 15.3567363,0.00282535999 15,0 L2.51420455,0 Z M2.51420455,1.8974359 L14.4176136,1.8974359 L15.9943182,5.60336538 C16.1392574,5.94355124 16.4614455,6.16384131 16.8181818,6.16666667 L32.9403409,6.16666667 C33.3626486,6.16757269 33.6363636,6.46361538 33.6363636,6.81891026 L33.6363636,13.7564103 L21.9460227,13.7564103 L20.3693182,10.0504808 C20.224379,9.71029491 19.9021909,9.49000485 19.5454545,9.48717949 L7.05965909,9.48717949 C5.70499273,9.48717949 4.54545455,10.6182979 4.54545455,12.036859 L4.54545455,25.6153846 L2.51420455,25.6153846 C2.09413727,25.6153846 1.81818182,25.3184833 1.81818182,24.963141 L1.81818182,2.54967949 C1.81818182,2.19437513 2.09415273,1.8974359 2.51420455,1.8974359 Z M7.05965909,11.3846154 L18.9630682,11.3846154 L20.5397727,15.0905449 C20.6847119,15.4307307 21.0069,15.6510208 21.3636364,15.6538462 L37.4857955,15.6538462 C37.9081032,15.6547522 38.1818182,15.9507949 38.1818182,16.3060897 L38.1818182,34.4503205 C38.1818182,34.8056628 37.9058627,35.1025641 37.4857955,35.1025641 L7.05965909,35.1025641 C6.63959182,35.1025641 6.36363636,34.8056628 6.36363636,34.4503205 L6.36363636,12.036859 C6.36363636,11.6815546 6.63960727,11.3846154 7.05965909,11.3846154 Z" id="Shape"></path>
            </g>
            <g id="Folder" transform="translate(69.000000, 99.000000)" fill="#009F76" fill-rule="nonzero">
                <path d="M1.50852273,0 C0.695722882,0 0,0.672556923 0,1.51602564 L0,14.8429487 C0,15.6864231 0.695732182,16.3589744 1.50852273,16.3589744 L2.72727273,16.3589744 L2.72727273,20.4839744 C2.72727273,21.3274487 3.42300491,22 4.23579545,22 L22.4914773,22 C23.3042678,22 24,21.3274487 24,20.4839744 L24,9.69551282 C24,8.8520441 23.3029214,8.18121615 22.4914773,8.17948718 L21.2727273,8.17948718 L21.2727273,4.05448718 C21.2727273,3.21101846 20.5756486,2.54019051 19.7642045,2.53846154 L10.4403409,2.53846154 L9.49431818,0.334935897 C9.40735466,0.132663225 9.21404179,0.00167994378 9,0 L1.50852273,0 Z M1.50852273,1.12820513 L8.65056818,1.12820513 L9.59659091,3.33173077 C9.68355444,3.53400344 9.8768673,3.66498672 10.0909091,3.66666667 L19.7642045,3.66666667 C20.0175892,3.66720538 20.1818182,3.84323077 20.1818182,4.05448718 L20.1818182,8.17948718 L13.1676136,8.17948718 L12.2215909,5.97596154 C12.1346274,5.77368887 11.9413145,5.64270558 11.7272727,5.64102564 L4.23579545,5.64102564 C3.42299564,5.64102564 2.72727273,6.31358256 2.72727273,7.15705128 L2.72727273,15.2307692 L1.50852273,15.2307692 C1.25648236,15.2307692 1.09090909,15.0542333 1.09090909,14.8429487 L1.09090909,1.51602564 C1.09090909,1.30476359 1.25649164,1.12820513 1.50852273,1.12820513 Z M4.23579545,6.76923077 L11.3778409,6.76923077 L12.3238636,8.97275641 C12.4108272,9.17502908 12.60414,9.30601236 12.8181818,9.30769231 L22.4914773,9.30769231 C22.7448619,9.30823103 22.9090909,9.48425641 22.9090909,9.69551282 L22.9090909,20.4839744 C22.9090909,20.695259 22.7435176,20.8717949 22.4914773,20.8717949 L4.23579545,20.8717949 C3.98375509,20.8717949 3.81818182,20.695259 3.81818182,20.4839744 L3.81818182,7.15705128 C3.81818182,6.94578923 3.98376436,6.76923077 4.23579545,6.76923077 Z" id="Shape"></path>
            </g>
            <path d="M83.5080286,175.804148 L107.482494,189.973005 C109.309134,191.052545 110.429778,193.016567 110.429778,195.138363 L110.429778,223.721012 C110.429778,225.842808 109.309134,227.80683 107.482494,228.88637 L83.5080286,243.055227 C81.6250175,244.168082 79.2856085,244.168082 77.4025974,243.055227 L53.4281324,228.88637 C51.6014922,227.80683 50.480848,225.842808 50.480848,223.721012 L50.480848,195.138363 C50.480848,193.016567 51.6014922,191.052545 53.4281324,189.973005 L77.4025974,175.804148 C79.2856085,174.691293 81.6250175,174.691293 83.5080286,175.804148 Z" id="Polygon-2" stroke="#009F76"></path>
            <rect id="Rectangle" stroke="#009F76" stroke-width="2" x="123" y="174" width="81" height="68" rx="4"></rect>
            <path d="M83.5080286,56.8041483 L118.963342,77.7581613 C120.789982,78.8377017 121.910626,80.8017228 121.910626,82.9235197 L121.910626,125.07648 C121.910626,127.198277 120.789982,129.162298 118.963342,130.241839 L83.5080286,151.195852 C81.6250175,152.308707 79.2856085,152.308707 77.4025974,151.195852 L41.9472844,130.241839 C40.1206442,129.162298 39,127.198277 39,125.07648 L39,82.9235197 C39,80.8017228 40.1206442,78.8377017 41.9472844,77.7581613 L77.4025974,56.8041483 C79.2856085,55.6912928 81.6250175,55.6912928 83.5080286,56.8041483 Z" id="Polygon-2" stroke="#009F76"></path>
            <path d="M193.508029,46.8041483 L228.963342,67.7581613 C230.789982,68.8377017 231.910626,70.8017228 231.910626,72.9235197 L231.910626,115.07648 C231.910626,117.198277 230.789982,119.162298 228.963342,120.241839 L193.508029,141.195852 C191.625018,142.308707 189.285608,142.308707 187.402597,141.195852 L151.947284,120.241839 C150.120644,119.162298 149,117.198277 149,115.07648 L149,72.9235197 C149,70.8017228 150.120644,68.8377017 151.947284,67.7581613 L187.402597,46.8041483 C189.285608,45.6912928 191.625018,45.6912928 193.508029,46.8041483 Z" id="Polygon-2" stroke="#009F76"></path>
            <text id="Pod_A" font-family="Verdana" font-size="16" font-weight="normal" fill="#009F76">
                <tspan x="52" y="89">Pod_A</tspan>
            </text>
            <text id="Pod_B" font-family="Verdana" font-size="16" font-weight="normal" fill="#009F76">
                <tspan x="166" y="79">Pod_B</tspan>
            </text>
            <text id="s3fuse-pod" font-family="Verdana-Bold, Verdana" font-size="10" font-weight="bold" fill="#009F76">
                <tspan x="61.4994027" y="209">s3fuse</tspan>
                <tspan x="69.5560433" y="221">pod</tspan>
            </text>
            <text id="host-filesystem" font-family="Verdana-Bold, Verdana" font-size="10" font-weight="bold" fill="#009F76">
                <tspan x="121.126465" y="256">host filesystem</tspan>
            </text>
            <text id="/mnt/s3" font-family="Verdana-Bold, Verdana" font-size="10" font-weight="bold" fill="#009F76">
                <tspan x="138.454102" y="233">/mnt/s3</tspan>
            </text>
            <text id="/var/s3" font-family="Verdana-Bold, Verdana" font-size="10" font-weight="bold" fill="#009F76">
                <tspan x="58.0097656" y="133">/var/s3</tspan>
            </text>
            <path d="M80.1347656,238.828125 C94.3996416,219.335905 104.658431,209.817675 110.911133,210.273437 C117.163835,210.7292 126.396582,215.485711 138.609375,224.542971" id="Line-3" stroke="#009F76" stroke-width="3" stroke-linecap="round" stroke-linejoin="round"></path>
            <path id="Line-3-decoration-1" d="M128.147558,220.519243 L138.609375,224.542971 L131.721662,215.699929" stroke="#009F76" stroke-width="3" stroke-linecap="round" stroke-linejoin="round"></path>
            <path d="M194.667969,229.433594 C214.688802,228.650769 226.526042,218.918912 230.179688,200.238025 C233.833333,181.557138 221.996094,157.721286 194.667969,128.730469" id="Line-3" stroke="#009F76" stroke-width="3" stroke-linecap="round" stroke-linejoin="round"></path>
            <path id="Line-3-decoration-1" d="M204.259033,134.53146 L194.667969,128.730469 L199.89304,138.647053" stroke="#009F76" stroke-width="3" stroke-linecap="round" stroke-linejoin="round"></path>
            <path d="M195.021484,229.759766 C214.900391,225.44108 222.665365,212.868717 218.316406,192.042674 C214.546008,173.987208 211.203125,154.621094 114.539062,161.5 C108.270416,161.946096 101.536041,155.699351 94.3359375,142.759766" id="Line-3" stroke="#009F76" stroke-width="3" stroke-linecap="round" stroke-linejoin="round"></path>
            <path id="Line-3-decoration-1" d="M102.208745,150.738418 L94.3359375,142.759766 L96.9657714,153.655819" stroke="#009F76" stroke-width="3" stroke-linecap="round" stroke-linejoin="round"></path>
            <g id="Folder" transform="translate(180.000000, 87.000000)" fill="#009F76" fill-rule="nonzero">
                <path d="M1.50852273,0 C0.695722882,0 0,0.672556923 0,1.51602564 L0,14.8429487 C0,15.6864231 0.695732182,16.3589744 1.50852273,16.3589744 L2.72727273,16.3589744 L2.72727273,20.4839744 C2.72727273,21.3274487 3.42300491,22 4.23579545,22 L22.4914773,22 C23.3042678,22 24,21.3274487 24,20.4839744 L24,9.69551282 C24,8.8520441 23.3029214,8.18121615 22.4914773,8.17948718 L21.2727273,8.17948718 L21.2727273,4.05448718 C21.2727273,3.21101846 20.5756486,2.54019051 19.7642045,2.53846154 L10.4403409,2.53846154 L9.49431818,0.334935897 C9.40735466,0.132663225 9.21404179,0.00167994378 9,0 L1.50852273,0 Z M1.50852273,1.12820513 L8.65056818,1.12820513 L9.59659091,3.33173077 C9.68355444,3.53400344 9.8768673,3.66498672 10.0909091,3.66666667 L19.7642045,3.66666667 C20.0175892,3.66720538 20.1818182,3.84323077 20.1818182,4.05448718 L20.1818182,8.17948718 L13.1676136,8.17948718 L12.2215909,5.97596154 C12.1346274,5.77368887 11.9413145,5.64270558 11.7272727,5.64102564 L4.23579545,5.64102564 C3.42299564,5.64102564 2.72727273,6.31358256 2.72727273,7.15705128 L2.72727273,15.2307692 L1.50852273,15.2307692 C1.25648236,15.2307692 1.09090909,15.0542333 1.09090909,14.8429487 L1.09090909,1.51602564 C1.09090909,1.30476359 1.25649164,1.12820513 1.50852273,1.12820513 Z M4.23579545,6.76923077 L11.3778409,6.76923077 L12.3238636,8.97275641 C12.4108272,9.17502908 12.60414,9.30601236 12.8181818,9.30769231 L22.4914773,9.30769231 C22.7448619,9.30823103 22.9090909,9.48425641 22.9090909,9.69551282 L22.9090909,20.4839744 C22.9090909,20.695259 22.7435176,20.8717949 22.4914773,20.8717949 L4.23579545,20.8717949 C3.98375509,20.8717949 3.81818182,20.695259 3.81818182,20.4839744 L3.81818182,7.15705128 C3.81818182,6.94578923 3.98376436,6.76923077 4.23579545,6.76923077 Z" id="Shape"></path>
            </g>
            <text id="/var/s3" font-family="Verdana-Bold, Verdana" font-size="10" font-weight="bold" fill="#009F76">
                <tspan x="168.009766" y="121">/var/s3</tspan>
            </text>
        </g>
        <g id="Node" transform="translate(454.000000, 56.000000)">
            <g id="Polygon">
                <use fill="black" fill-opacity="1" filter="url(#filter-4)" xlink:href="#path-3"></use>
                <use fill="#F7FCFB" fill-rule="evenodd" xlink:href="#path-3"></use>
            </g>
            <g id="Folder" transform="translate(142.000000, 183.000000)" fill="#009F76" fill-rule="nonzero">
                <path d="M2.51420455,0 C1.15953814,0 0,1.13111846 0,2.54967949 L0,24.963141 C0,26.3817115 1.15955364,27.5128205 2.51420455,27.5128205 L4.54545455,27.5128205 L4.54545455,34.4503205 C4.54545455,35.868891 5.70500818,37 7.05965909,37 L37.4857955,37 C38.8404464,37 40,35.868891 40,34.4503205 L40,16.3060897 C40,14.8875287 38.8382023,13.7593181 37.4857955,13.7564103 L35.4545455,13.7564103 L35.4545455,6.81891026 C35.4545455,5.40034923 34.2927477,4.27213859 32.9403409,4.26923077 L17.4005682,4.26923077 L15.8238636,0.563301282 C15.6789244,0.223115424 15.3567363,0.00282535999 15,0 L2.51420455,0 Z M2.51420455,1.8974359 L14.4176136,1.8974359 L15.9943182,5.60336538 C16.1392574,5.94355124 16.4614455,6.16384131 16.8181818,6.16666667 L32.9403409,6.16666667 C33.3626486,6.16757269 33.6363636,6.46361538 33.6363636,6.81891026 L33.6363636,13.7564103 L21.9460227,13.7564103 L20.3693182,10.0504808 C20.224379,9.71029491 19.9021909,9.49000485 19.5454545,9.48717949 L7.05965909,9.48717949 C5.70499273,9.48717949 4.54545455,10.6182979 4.54545455,12.036859 L4.54545455,25.6153846 L2.51420455,25.6153846 C2.09413727,25.6153846 1.81818182,25.3184833 1.81818182,24.963141 L1.81818182,2.54967949 C1.81818182,2.19437513 2.09415273,1.8974359 2.51420455,1.8974359 Z M7.05965909,11.3846154 L18.9630682,11.3846154 L20.5397727,15.0905449 C20.6847119,15.4307307 21.0069,15.6510208 21.3636364,15.6538462 L37.4857955,15.6538462 C37.9081032,15.6547522 38.1818182,15.9507949 38.1818182,16.3060897 L38.1818182,34.4503205 C38.1818182,34.8056628 37.9058627,35.1025641 37.4857955,35.1025641 L7.05965909,35.1025641 C6.63959182,35.1025641 6.36363636,34.8056628 6.36363636,34.4503205 L6.36363636,12.036859 C6.36363636,11.6815546 6.63960727,11.3846154 7.05965909,11.3846154 Z" id="Shape"></path>
            </g>
            <g id="Folder" transform="translate(69.000000, 99.000000)" fill="#009F76" fill-rule="nonzero">
                <path d="M1.50852273,0 C0.695722882,0 0,0.672556923 0,1.51602564 L0,14.8429487 C0,15.6864231 0.695732182,16.3589744 1.50852273,16.3589744 L2.72727273,16.3589744 L2.72727273,20.4839744 C2.72727273,21.3274487 3.42300491,22 4.23579545,22 L22.4914773,22 C23.3042678,22 24,21.3274487 24,20.4839744 L24,9.69551282 C24,8.8520441 23.3029214,8.18121615 22.4914773,8.17948718 L21.2727273,8.17948718 L21.2727273,4.05448718 C21.2727273,3.21101846 20.5756486,2.54019051 19.7642045,2.53846154 L10.4403409,2.53846154 L9.49431818,0.334935897 C9.40735466,0.132663225 9.21404179,0.00167994378 9,0 L1.50852273,0 Z M1.50852273,1.12820513 L8.65056818,1.12820513 L9.59659091,3.33173077 C9.68355444,3.53400344 9.8768673,3.66498672 10.0909091,3.66666667 L19.7642045,3.66666667 C20.0175892,3.66720538 20.1818182,3.84323077 20.1818182,4.05448718 L20.1818182,8.17948718 L13.1676136,8.17948718 L12.2215909,5.97596154 C12.1346274,5.77368887 11.9413145,5.64270558 11.7272727,5.64102564 L4.23579545,5.64102564 C3.42299564,5.64102564 2.72727273,6.31358256 2.72727273,7.15705128 L2.72727273,15.2307692 L1.50852273,15.2307692 C1.25648236,15.2307692 1.09090909,15.0542333 1.09090909,14.8429487 L1.09090909,1.51602564 C1.09090909,1.30476359 1.25649164,1.12820513 1.50852273,1.12820513 Z M4.23579545,6.76923077 L11.3778409,6.76923077 L12.3238636,8.97275641 C12.4108272,9.17502908 12.60414,9.30601236 12.8181818,9.30769231 L22.4914773,9.30769231 C22.7448619,9.30823103 22.9090909,9.48425641 22.9090909,9.69551282 L22.9090909,20.4839744 C22.9090909,20.695259 22.7435176,20.8717949 22.4914773,20.8717949 L4.23579545,20.8717949 C3.98375509,20.8717949 3.81818182,20.695259 3.81818182,20.4839744 L3.81818182,7.15705128 C3.81818182,6.94578923 3.98376436,6.76923077 4.23579545,6.76923077 Z" id="Shape"></path>
            </g>
            <path d="M83.5080286,175.804148 L107.482494,189.973005 C109.309134,191.052545 110.429778,193.016567 110.429778,195.138363 L110.429778,223.721012 C110.429778,225.842808 109.309134,227.80683 107.482494,228.88637 L83.5080286,243.055227 C81.6250175,244.168082 79.2856085,244.168082 77.4025974,243.055227 L53.4281324,228.88637 C51.6014922,227.80683 50.480848,225.842808 50.480848,223.721012 L50.480848,195.138363 C50.480848,193.016567 51.6014922,191.052545 53.4281324,189.973005 L77.4025974,175.804148 C79.2856085,174.691293 81.6250175,174.691293 83.5080286,175.804148 Z" id="Polygon-2" stroke="#009F76"></path>
            <rect id="Rectangle" stroke="#009F76" stroke-width="2" x="123" y="174" width="81" height="68" rx="4"></rect>
            <path d="M83.5080286,56.8041483 L118.963342,77.7581613 C120.789982,78.8377017 121.910626,80.8017228 121.910626,82.9235197 L121.910626,125.07648 C121.910626,127.198277 120.789982,129.162298 118.963342,130.241839 L83.5080286,151.195852 C81.6250175,152.308707 79.2856085,152.308707 77.4025974,151.195852 L41.9472844,130.241839 C40.1206442,129.162298 39,127.198277 39,125.07648 L39,82.9235197 C39,80.8017228 40.1206442,78.8377017 41.9472844,77.7581613 L77.4025974,56.8041483 C79.2856085,55.6912928 81.6250175,55.6912928 83.5080286,56.8041483 Z" id="Polygon-2" stroke="#009F76"></path>
            <path d="M193.508029,46.8041483 L228.963342,67.7581613 C230.789982,68.8377017 231.910626,70.8017228 231.910626,72.9235197 L231.910626,115.07648 C231.910626,117.198277 230.789982,119.162298 228.963342,120.241839 L193.508029,141.195852 C191.625018,142.308707 189.285608,142.308707 187.402597,141.195852 L151.947284,120.241839 C150.120644,119.162298 149,117.198277 149,115.07648 L149,72.9235197 C149,70.8017228 150.120644,68.8377017 151.947284,67.7581613 L187.402597,46.8041483 C189.285608,45.6912928 191.625018,45.6912928 193.508029,46.8041483 Z" id="Polygon-2" stroke="#009F76"></path>
            <text id="Pod_A" font-family="Verdana" font-size="16" font-weight="normal" fill="#009F76">
                <tspan x="52" y="89">Pod_A</tspan>
            </text>
            <text id="Pod_B" font-family="Verdana" font-size="16" font-weight="normal" fill="#009F76">
                <tspan x="166" y="79">Pod_B</tspan>
            </text>
            <text id="s3fuse-pod" font-family="Verdana-Bold, Verdana" font-size="10" font-weight="bold" fill="#009F76">
                <tspan x="61.4994027" y="209">s3fuse</tspan>
                <tspan x="69.5560433" y="221">pod</tspan>
            </text>
            <text id="host-filesystem" font-family="Verdana-Bold, Verdana" font-size="10" font-weight="bold" fill="#009F76">
                <tspan x="121.126465" y="256">host filesystem</tspan>
            </text>
            <text id="/mnt/s3" font-family="Verdana-Bold, Verdana" font-size="10" font-weight="bold" fill="#009F76">
                <tspan x="138.454102" y="233">/mnt/s3</tspan>
            </text>
            <text id="/var/s3" font-family="Verdana-Bold, Verdana" font-size="10" font-weight="bold" fill="#009F76">
                <tspan x="58.0097656" y="133">/var/s3</tspan>
            </text>
            <path d="M80.1347656,238.828125 C94.3996416,219.335905 104.658431,209.817675 110.911133,210.273437 C117.163835,210.7292 126.396582,215.485711 138.609375,224.542971" id="Line-3" stroke="#009F76" stroke-width="3" stroke-linecap="round" stroke-linejoin="round"></path>
            <path id="Line-3-decoration-1" d="M128.147558,220.519243 L138.609375,224.542971 L131.721662,215.699929" stroke="#009F76" stroke-width="3" stroke-linecap="round" stroke-linejoin="round"></path>
            <path d="M194.667969,229.433594 C214.688802,228.650769 226.526042,218.918912 230.179688,200.238025 C233.833333,181.557138 221.996094,157.721286 194.667969,128.730469" id="Line-3" stroke="#009F76" stroke-width="3" stroke-linecap="round" stroke-linejoin="round"></path>
            <path id="Line-3-decoration-1" d="M204.259033,134.53146 L194.667969,128.730469 L199.89304,138.647053" stroke="#009F76" stroke-width="3" stroke-linecap="round" stroke-linejoin="round"></path>
            <path d="M195.021484,229.759766 C214.900391,225.44108 222.665365,212.868717 218.316406,192.042674 C214.546008,173.987208 211.203125,154.621094 114.539062,161.5 C108.270416,161.946096 101.536041,155.699351 94.3359375,142.759766" id="Line-3" stroke="#009F76" stroke-width="3" stroke-linecap="round" stroke-linejoin="round"></path>
            <path id="Line-3-decoration-1" d="M102.208745,150.738418 L94.3359375,142.759766 L96.9657714,153.655819" stroke="#009F76" stroke-width="3" stroke-linecap="round" stroke-linejoin="round"></path>
            <g id="Folder" transform="translate(180.000000, 87.000000)" fill="#009F76" fill-rule="nonzero">
                <path d="M1.50852273,0 C0.695722882,0 0,0.672556923 0,1.51602564 L0,14.8429487 C0,15.6864231 0.695732182,16.3589744 1.50852273,16.3589744 L2.72727273,16.3589744 L2.72727273,20.4839744 C2.72727273,21.3274487 3.42300491,22 4.23579545,22 L22.4914773,22 C23.3042678,22 24,21.3274487 24,20.4839744 L24,9.69551282 C24,8.8520441 23.3029214,8.18121615 22.4914773,8.17948718 L21.2727273,8.17948718 L21.2727273,4.05448718 C21.2727273,3.21101846 20.5756486,2.54019051 19.7642045,2.53846154 L10.4403409,2.53846154 L9.49431818,0.334935897 C9.40735466,0.132663225 9.21404179,0.00167994378 9,0 L1.50852273,0 Z M1.50852273,1.12820513 L8.65056818,1.12820513 L9.59659091,3.33173077 C9.68355444,3.53400344 9.8768673,3.66498672 10.0909091,3.66666667 L19.7642045,3.66666667 C20.0175892,3.66720538 20.1818182,3.84323077 20.1818182,4.05448718 L20.1818182,8.17948718 L13.1676136,8.17948718 L12.2215909,5.97596154 C12.1346274,5.77368887 11.9413145,5.64270558 11.7272727,5.64102564 L4.23579545,5.64102564 C3.42299564,5.64102564 2.72727273,6.31358256 2.72727273,7.15705128 L2.72727273,15.2307692 L1.50852273,15.2307692 C1.25648236,15.2307692 1.09090909,15.0542333 1.09090909,14.8429487 L1.09090909,1.51602564 C1.09090909,1.30476359 1.25649164,1.12820513 1.50852273,1.12820513 Z M4.23579545,6.76923077 L11.3778409,6.76923077 L12.3238636,8.97275641 C12.4108272,9.17502908 12.60414,9.30601236 12.8181818,9.30769231 L22.4914773,9.30769231 C22.7448619,9.30823103 22.9090909,9.48425641 22.9090909,9.69551282 L22.9090909,20.4839744 C22.9090909,20.695259 22.7435176,20.8717949 22.4914773,20.8717949 L4.23579545,20.8717949 C3.98375509,20.8717949 3.81818182,20.695259 3.81818182,20.4839744 L3.81818182,7.15705128 C3.81818182,6.94578923 3.98376436,6.76923077 4.23579545,6.76923077 Z" id="Shape"></path>
            </g>
            <text id="/var/s3" font-family="Verdana-Bold, Verdana" font-size="10" font-weight="bold" fill="#009F76">
                <tspan x="168.009766" y="121">/var/s3</tspan>
            </text>
        </g>
        <g id="Line-2" stroke-linecap="round" stroke-linejoin="round">
            <use fill="black" fill-opacity="1" filter="url(#filter-6)" xlink:href="#path-5"></use>
            <use stroke="#009F76" stroke-width="2" xlink:href="#path-5"></use>
        </g>
        <g id="Line-2" stroke-linecap="round" stroke-linejoin="round">
            <use fill="black" fill-opacity="1" filter="url(#filter-8)" xlink:href="#path-7"></use>
            <use stroke="#009F76" stroke-width="2" xlink:href="#path-7"></use>
        </g>
    </g>
</svg>